<?xml version="1.0" encoding="utf-8"?>
<!-- Generator: Adobe Illustrator 15.1.0, SVG Export Plug-In . SVG Version: 6.00 Build 0)  -->
<!DOCTYPE svg PUBLIC "-//W3C//DTD SVG 1.1//EN" "http://www.w3.org/Graphics/SVG/1.1/DTD/svg11.dtd">
<svg version="1.1" id="Layer_1" xmlns="http://www.w3.org/2000/svg" xmlns:xlink="http://www.w3.org/1999/xlink" x="0px" y="0px"
	 width="815.959px" height="817.459px" viewBox="0 0 815.959 817.459" enable-background="new 0 0 815.959 817.459"
	 xml:space="preserve">
<path d="M605.466,482.728h-22.685l11.65-28.818c2.859-7.05,4.292-12.211,4.292-15.482c0-5.312-1.839-9.655-5.519-13.028
	c-3.678-3.372-8.33-5.057-13.95-5.057c-5.008,0-11.034,2.043-18.086,6.129l-8.125,4.752c-7.153,4.089-14.154,6.131-20.998,6.131
	c-15.33,0-22.996-6.537-22.996-19.62v-3.067H544c24.423,0,42.715-3.677,54.878-11.035c18.292-11.036,27.438-26.773,27.438-47.211
	c0-14.511-4.932-26.366-14.792-35.563c-9.861-9.198-22.609-13.795-38.244-13.795c-18.906,0-36.866,6.284-53.881,18.854
	c-17.013,12.57-31.093,29.944-42.229,52.116h-22.227h-3.986c-0.888,0-1.756,0.04-2.607,0.111h-22.652l55.182-135.963l3.526-8.584
	c1.633-3.986,2.453-7.664,2.453-11.036c0-5.313-2.123-9.834-6.362-13.567c-4.241-3.729-9.427-5.594-15.56-5.594
	c-8.787,0-18.24,4.957-28.355,14.868l-45.986,45.219l-9.351-35.257c-2.451-9.196-5.342-15.634-8.66-19.313
	c-3.322-3.679-7.843-5.518-13.565-5.518c-8.994,0-16.147,6.59-21.462,19.774l-60.854,149.759
	c-10.933,26.775-20.976,45.449-30.12,56.026c-9.144,10.579-19.903,15.863-32.266,15.863c-10.323,0-18.448-3.347-24.371-10.039
	c-5.931-6.693-8.893-15.865-8.893-27.515c0-10.933,3.04-21.406,9.121-31.423c6.079-10.014,14.279-18.138,24.602-24.372
	c12.468-7.458,28.87-12.11,49.207-13.948c8.788-0.818,14.714-2.352,17.777-4.601c5.315-3.881,7.974-8.94,7.974-15.175
	c0-5.926-2.506-10.676-7.513-14.255c-5.008-3.576-11.7-5.364-20.081-5.364c-16.453,0-33.161,3.551-50.123,10.653
	c-16.963,7.104-31.117,16.428-42.458,27.973c-21.054,21.666-31.578,46.753-31.578,75.264c0,21.766,6.691,39.418,20.081,52.959
	c13.386,13.542,30.812,20.311,52.271,20.311c20.131,0,37.961-6.031,53.495-18.087c10.729-8.382,19.469-18.268,26.213-29.661
	c6.742-11.395,16.554-32.929,29.427-64.61l37.404-92.278l4.294,19.008c2.451,11.342,7.815,17.014,16.092,17.014
	c6.338,0,13.031-3.832,20.083-11.497l29.584-31.729l-39.394,92.279c-4.293,10.22-6.438,17.986-6.438,23.298
	c0,8.277,2.883,14.639,8.659,19.084c5.771,4.445,13.974,6.667,24.602,6.667h29.125l0.023-0.123c0.138,0.001,0.266,0.011,0.405,0.011
	h3.984h21.154c0,17.782,4.8,32.114,14.409,42.998c9.602,10.884,22.227,16.325,37.861,16.325c8.07,0,15.992-1.431,23.759-4.291
	l-5.211,13.028l-24.373,0.307c-30.557,0-54.57,4.855-72.045,14.563c-28.613,16.147-42.919,39.139-42.919,68.977
	c0,18.906,6.359,34.667,19.083,47.289c12.725,12.621,28.589,18.931,47.597,18.931c20.131,0,36.94-6.414,50.431-19.237
	c13.489-12.826,26.413-34.821,38.78-65.987l11.342-28.205h30.658c8.894,0,15.84-1.917,20.847-5.75
	c5.006-3.829,7.513-9.118,7.513-15.863C626.776,487.734,619.669,482.728,605.466,482.728z M545.151,352.435
	c8.94-6.231,17.345-9.351,25.217-9.351c5.106,0,9.323,1.356,12.646,4.063c3.318,2.709,4.98,6.108,4.98,10.193
	c0,13.796-12.673,20.693-38.015,20.693h-29.737C527.904,367.203,536.207,358.67,545.151,352.435z M516.104,541.282
	c-7.462,18.494-14.948,31.885-22.458,40.162c-7.511,8.275-15.917,12.415-25.216,12.415c-7.663,0-14.128-2.76-19.389-8.275
	c-5.265-5.521-7.896-12.266-7.896-20.234c0-8.584,3.065-16.429,9.198-23.531c6.132-7.103,14.508-12.544,25.14-16.323
	c11.441-4.088,27.946-6.132,49.508-6.132L516.104,541.282z M402.57,754.872c-46.395,0-91.411-9.09-133.797-27.019
	c-40.932-17.313-77.689-42.094-109.25-73.654c-31.562-31.562-56.342-68.318-73.655-109.25
	c-17.928-42.388-27.019-87.403-27.019-133.798c0-46.394,9.09-91.409,27.019-133.796c17.313-40.932,42.094-77.688,73.655-109.25
	s68.318-56.342,109.25-73.655c42.387-17.928,87.403-27.019,133.797-27.019c46.394,0,91.41,9.09,133.796,27.019
	c40.932,17.313,77.688,42.094,109.249,73.655s56.342,68.318,73.654,109.25c17.929,42.387,27.019,87.402,27.019,133.796
	c0,46.395-9.09,91.41-27.019,133.798c-17.313,40.932-42.094,77.688-73.654,109.25c-31.561,31.561-68.317,56.342-109.249,73.654
	C493.98,745.782,448.964,754.872,402.57,754.872z M402.57,102.432c-170.229,0-308.722,138.491-308.722,308.719
	c0,170.229,138.492,308.721,308.722,308.721c170.228,0,308.718-138.491,308.718-308.721
	C711.289,240.923,572.798,102.432,402.57,102.432z"/>
</svg>
